<mxfile modified="2022-05-04T04:26:09.373Z" host="app.diagrams.net" agent="5.0 (Windows NT 10.0; Win64; x64) AppleWebKit/537.36 (KHTML, like Gecko) Chrome/100.0.4896.127 Safari/537.36 Edg/100.0.1185.50" etag="ThuOxtbt9NGcaPM4KQuW" compressed="false" version="17.5.0" type="google">
  <diagram id="EolY4kBKU89a1tHCZlCg" name="SysStatus">
    <mxGraphModel grid="1" page="1" gridSize="10" guides="1" tooltips="1" connect="0" arrows="1" fold="1" pageScale="1" pageWidth="827" pageHeight="1169" math="0" shadow="0">
      <root>
        <mxCell id="32lxiAtwSbNcVohbTVrE-0" />
        <mxCell id="32lxiAtwSbNcVohbTVrE-1" parent="32lxiAtwSbNcVohbTVrE-0" />
        <mxCell id="eDF7SFJ-pdUWGWhBbYTZ-11" value="&lt;font style=&quot;font-size: 12px&quot;&gt;&lt;span style=&quot;font-size: 12px&quot;&gt;Diagram: Base&amp;nbsp;&lt;/span&gt;System&amp;nbsp;&lt;span style=&quot;font-size: 12px&quot;&gt;Logical Module -&amp;nbsp;&lt;/span&gt;&lt;span style=&quot;font-size: 12px&quot;&gt;Functionality -&amp;nbsp;&lt;/span&gt;System Status Messages&lt;/font&gt;" style="text;strokeColor=none;fillColor=none;html=1;fontSize=12;fontStyle=2;verticalAlign=middle;align=left;shadow=0;glass=0;comic=0;opacity=30;fontColor=#808080;" vertex="1" parent="32lxiAtwSbNcVohbTVrE-1">
          <mxGeometry x="120" y="437" width="520" height="28" as="geometry" />
        </mxCell>
        <mxCell id="GP0h0LNX_-3c74tFgDjU-0" value="" style="fontStyle=1;align=center;verticalAlign=top;childLayout=stackLayout;horizontal=1;horizontalStack=0;resizeParent=1;resizeParentMax=0;resizeLast=0;marginBottom=0;strokeColor=#82b366;strokeWidth=2;fillColor=none;" vertex="1" parent="32lxiAtwSbNcVohbTVrE-1">
          <mxGeometry x="380" y="160" width="120" height="93" as="geometry" />
        </mxCell>
        <mxCell id="GP0h0LNX_-3c74tFgDjU-1" value="View Paged, &lt;br&gt;Ordered, &lt;br&gt;Filtered List of&amp;nbsp;&lt;br&gt;SummaryItems of&lt;br&gt;StatusMessage" style="html=1;align=left;spacingLeft=4;verticalAlign=middle;strokeColor=none;fillColor=none;fontStyle=1" vertex="1" parent="GP0h0LNX_-3c74tFgDjU-0">
          <mxGeometry width="120" height="60" as="geometry" />
        </mxCell>
        <mxCell id="GP0h0LNX_-3c74tFgDjU-2" value="" style="shape=ellipse;" vertex="1" parent="GP0h0LNX_-3c74tFgDjU-1">
          <mxGeometry x="1" width="10" height="16" relative="1" as="geometry">
            <mxPoint x="-25" y="7" as="offset" />
          </mxGeometry>
        </mxCell>
        <mxCell id="GP0h0LNX_-3c74tFgDjU-3" value="" style="line;strokeWidth=1;fillColor=none;align=left;verticalAlign=middle;spacingTop=-1;spacingLeft=3;spacingRight=3;rotatable=0;labelPosition=right;points=[];portConstraint=eastwest;" vertex="1" parent="GP0h0LNX_-3c74tFgDjU-0">
          <mxGeometry y="60" width="120" height="8" as="geometry" />
        </mxCell>
        <mxCell id="GP0h0LNX_-3c74tFgDjU-4" value="." style="html=1;align=center;spacingLeft=4;verticalAlign=top;strokeColor=none;fillColor=none;" vertex="1" parent="GP0h0LNX_-3c74tFgDjU-0">
          <mxGeometry y="68" width="120" height="25" as="geometry" />
        </mxCell>
        <mxCell id="GP0h0LNX_-3c74tFgDjU-6" style="edgeStyle=none;rounded=0;orthogonalLoop=1;jettySize=auto;html=1;entryX=0;entryY=0.75;entryDx=0;entryDy=0;endArrow=open;endFill=0;" edge="1" parent="32lxiAtwSbNcVohbTVrE-1" source="GP0h0LNX_-3c74tFgDjU-5" target="GP0h0LNX_-3c74tFgDjU-1">
          <mxGeometry relative="1" as="geometry" />
        </mxCell>
        <mxCell id="GP0h0LNX_-3c74tFgDjU-5" value="&lt;p style=&quot;line-height: 100%&quot;&gt;&amp;lt;&amp;lt;actor&amp;gt;&amp;gt;&lt;br&gt;&lt;br&gt;&lt;b&gt;Authenticated&lt;br&gt;User&lt;/b&gt;&lt;/p&gt;" style="text;html=1;align=center;verticalAlign=middle;dashed=0;strokeColor=#000000;strokeWidth=2;" vertex="1" parent="32lxiAtwSbNcVohbTVrE-1">
          <mxGeometry x="120" y="168" width="80" height="77" as="geometry" />
        </mxCell>
        <mxCell id="GP0h0LNX_-3c74tFgDjU-13" style="edgeStyle=none;rounded=0;orthogonalLoop=1;jettySize=auto;html=1;entryX=0;entryY=0.25;entryDx=0;entryDy=0;endArrow=open;endFill=0;" edge="1" parent="32lxiAtwSbNcVohbTVrE-1" source="GP0h0LNX_-3c74tFgDjU-7" target="GP0h0LNX_-3c74tFgDjU-12">
          <mxGeometry relative="1" as="geometry" />
        </mxCell>
        <mxCell id="GP0h0LNX_-3c74tFgDjU-18" style="edgeStyle=none;rounded=0;orthogonalLoop=1;jettySize=auto;html=1;endArrow=block;endFill=0;" edge="1" parent="32lxiAtwSbNcVohbTVrE-1" source="GP0h0LNX_-3c74tFgDjU-7">
          <mxGeometry relative="1" as="geometry">
            <mxPoint x="159.99999999999977" y="239.9999999999999" as="targetPoint" />
            <Array as="points">
              <mxPoint x="160" y="399" />
            </Array>
          </mxGeometry>
        </mxCell>
        <mxCell id="GP0h0LNX_-3c74tFgDjU-7" value="&lt;p style=&quot;line-height: 100%&quot;&gt;&amp;lt;&amp;lt;actor&amp;gt;&amp;gt;&lt;br&gt;&lt;br&gt;&lt;b&gt;System &lt;br&gt;Daemon&lt;/b&gt;&lt;/p&gt;" style="text;html=1;align=center;verticalAlign=middle;dashed=0;strokeColor=#000000;strokeWidth=2;" vertex="1" parent="32lxiAtwSbNcVohbTVrE-1">
          <mxGeometry x="240" y="360" width="80" height="77" as="geometry" />
        </mxCell>
        <mxCell id="GP0h0LNX_-3c74tFgDjU-8" value="" style="fontStyle=1;align=center;verticalAlign=top;childLayout=stackLayout;horizontal=1;horizontalStack=0;resizeParent=1;resizeParentMax=0;resizeLast=0;marginBottom=0;strokeColor=#82b366;strokeWidth=2;fillColor=none;" vertex="1" parent="32lxiAtwSbNcVohbTVrE-1">
          <mxGeometry x="380" y="300" width="120" height="83" as="geometry" />
        </mxCell>
        <mxCell id="GP0h0LNX_-3c74tFgDjU-9" value="Write &lt;br&gt;Status Message" style="html=1;align=left;spacingLeft=4;verticalAlign=middle;strokeColor=none;fillColor=none;fontStyle=1" vertex="1" parent="GP0h0LNX_-3c74tFgDjU-8">
          <mxGeometry width="120" height="50" as="geometry" />
        </mxCell>
        <mxCell id="GP0h0LNX_-3c74tFgDjU-10" value="" style="shape=ellipse;" vertex="1" parent="GP0h0LNX_-3c74tFgDjU-9">
          <mxGeometry x="1" width="10" height="16" relative="1" as="geometry">
            <mxPoint x="-25" y="7" as="offset" />
          </mxGeometry>
        </mxCell>
        <mxCell id="GP0h0LNX_-3c74tFgDjU-11" value="" style="line;strokeWidth=1;fillColor=none;align=left;verticalAlign=middle;spacingTop=-1;spacingLeft=3;spacingRight=3;rotatable=0;labelPosition=right;points=[];portConstraint=eastwest;" vertex="1" parent="GP0h0LNX_-3c74tFgDjU-8">
          <mxGeometry y="50" width="120" height="8" as="geometry" />
        </mxCell>
        <mxCell id="GP0h0LNX_-3c74tFgDjU-12" value="." style="html=1;align=center;spacingLeft=4;verticalAlign=top;strokeColor=none;fillColor=none;" vertex="1" parent="GP0h0LNX_-3c74tFgDjU-8">
          <mxGeometry y="58" width="120" height="25" as="geometry" />
        </mxCell>
        <mxCell id="GP0h0LNX_-3c74tFgDjU-15" style="edgeStyle=none;rounded=0;orthogonalLoop=1;jettySize=auto;html=1;endArrow=open;endFill=0;" edge="1" parent="32lxiAtwSbNcVohbTVrE-1" source="GP0h0LNX_-3c74tFgDjU-14">
          <mxGeometry relative="1" as="geometry">
            <mxPoint x="380" y="330" as="targetPoint" />
          </mxGeometry>
        </mxCell>
        <mxCell id="GP0h0LNX_-3c74tFgDjU-16" style="edgeStyle=none;rounded=0;orthogonalLoop=1;jettySize=auto;html=1;entryX=0.5;entryY=1;entryDx=0;entryDy=0;endArrow=block;endFill=0;" edge="1" parent="32lxiAtwSbNcVohbTVrE-1" source="GP0h0LNX_-3c74tFgDjU-14" target="GP0h0LNX_-3c74tFgDjU-5">
          <mxGeometry relative="1" as="geometry">
            <Array as="points">
              <mxPoint x="160" y="299" />
            </Array>
          </mxGeometry>
        </mxCell>
        <mxCell id="GP0h0LNX_-3c74tFgDjU-14" value="&lt;p style=&quot;line-height: 100%&quot;&gt;&amp;lt;&amp;lt;actor&amp;gt;&amp;gt;&lt;br&gt;&lt;br&gt;&lt;b&gt;Customer &lt;br&gt;Support&lt;br&gt;Specialist&lt;/b&gt;&lt;/p&gt;" style="text;html=1;align=center;verticalAlign=middle;dashed=0;strokeColor=#000000;strokeWidth=2;" vertex="1" parent="32lxiAtwSbNcVohbTVrE-1">
          <mxGeometry x="240" y="260" width="80" height="77" as="geometry" />
        </mxCell>
      </root>
    </mxGraphModel>
  </diagram>
</mxfile>
